<svg width="1440" height="1288" viewBox="0 0 1440 1288" fill="none" xmlns="http://www.w3.org/2000/svg">
<path d="M-0.377838 165.628V132.502H80.6007V165.628H161.579V132.502H242.558V66.2511H323.536V33.1256H404.408V132.502H485.386V265.005H566.365V132.502H647.343V66.2511H728.322V132.502H809.3H890.279V265.005H971.257V165.628H1052.24V132.502H1133.21V231.879H1214.09V132.502H1295.06V265.005H1376.04V132.502H1457.02V0H1538V298.13H1457.02H1376.04H1295.06H1214.09H1133.21H1052.24H971.257H890.279H809.3H728.322H647.343H566.365H485.386H404.408H323.536H242.558H161.579H80.6007H-0.377838V165.628Z" fill="#252E3C"/>
<path d="M-0.377838 165.628V132.502H80.6007V165.628H161.579V132.502H242.558V66.2511H323.536V33.1256H404.408V132.502H485.386V265.005H566.365V132.502H647.343V66.2511H728.322V132.502H809.3H890.279V265.005H971.257V165.628H1052.24V132.502H1133.21V231.879H1214.09V132.502H1295.06V265.005H1376.04V132.502H1457.02V0H1538V298.13H1457.02H1376.04H1295.06H1214.09H1133.21H1052.24H971.257H890.279H809.3H728.322H647.343H566.365H485.386H404.408H323.536H242.558H161.579H80.6007H-0.377838V165.628Z" fill="#252E3B"/>
<path d="M1518.38 1105.59V1142.07H1437.4V1105.59H1356.42V1142.07H1275.44V1215.04H1194.46V1251.52H1113.59V1142.07H1032.61V996.149H951.635V1142.07H870.657V1215.04H789.678V1142.07H708.7H627.721V996.149H546.743V1105.59L465.764 1105.59V1142.07H384.786V1032.63H303.914V1142.07H222.936V996.149H141.957V1142.07H60.9785V1288H-20V959.667H60.9785H141.957H222.936H303.914L384.786 959.667H465.764H546.743H627.721H708.7H789.678L870.657 959.667H951.635H1032.61H1113.59H1194.46H1275.44H1356.42H1437.4H1518.38V1105.59Z" fill="#252E3B"/>
<path d="M800.207 1118.83V928.282H636.361V1023.55H472.516V960.04H308.671V1118.83H144.826V991.797H-19.0189V833.011L144.826 833.011H308.671H472.516H636.361H800.207V1118.83Z" fill="#2A3443"/>
<path d="M1438.91 1148.05V957.511H1275.06V1052.78H1111.22V989.268H947.373V1148.05H783.528V1021.03H619.683V862.239L783.528 862.239H947.373H1111.22H1275.06H1438.91V1148.05Z" fill="#2A3443"/>
<path fill-rule="evenodd" clip-rule="evenodd" d="M1412.42 345.247V959.667H-0.377834V389.034H-20V291.673H143.845V194.312H307.69V259.22H471.535V96.9514H615.758H635.38V226.766H779.603V154.703H943.448V218.218H1107.29V59.4312H1271.14V186.46H1434.98V345.247H1412.42Z" fill="url(#paint0_linear)"/>
<defs>
<linearGradient id="paint0_linear" x1="707.492" y1="59.4312" x2="707.492" y2="941.156" gradientUnits="userSpaceOnUse">
<stop stop-color="#2A3443"/>
<stop offset="1" stop-color="#2A3443"/>
</linearGradient>
</defs>
</svg>
