<svg width="1441" height="1288" viewBox="0 0 1441 1288" fill="none" xmlns="http://www.w3.org/2000/svg">
<path fill-rule="evenodd" clip-rule="evenodd" d="M0 1288V102H81.5378V136H164.076V102H246.613V34H329.151V0H411.58V102H494.118V238H576.656V102H659.193V34H741.731V102H824.269H906.807V238H989.344V136H1071.88V102H1154.42V204H1236.85V102H1319.39V238H1401.92V102H1441V272H1439V951H1441V1100.78H1381.92V1138.22H1299.39V1213.11H1216.85V1250.56H1134.42V1138.22H1051.88V988.44H969.344V1138.22H886.807V1213.11H804.269V1138.22H721.731H639.193V988.44H556.656V1100.78H474.118V1138.22H391.58V1025.89H309.151V1138.22H226.613V988.44H144.076V1138.22H61.5378V1288H0Z" fill="#252E3B"/>
</svg>
