<svg width="43" height="60" viewBox="0 0 43 60" fill="none" xmlns="http://www.w3.org/2000/svg">
<g clip-path="url(#clip0)">
<path d="M42.4745 11.7616L38.6118 55.0347L21.2483 59.8484L3.93276 55.0414L0.0739746 11.7616H42.4745Z" fill="#E44D26"/>
<path d="M21.2742 56.1688L35.3047 52.2791L38.6055 15.3002H21.2742V56.1688Z" fill="#F16529"/>
<path d="M13.7652 25.9166H21.2743V20.6085H7.96411L8.09109 22.0326L9.3958 36.6603H21.2743V31.3522H14.2503L13.7652 25.9166Z" fill="#EBEBEB"/>
<path d="M14.9613 39.3145H9.63281L10.3764 47.649L21.2497 50.6673L21.2741 50.6606V45.1379L21.2509 45.1441L15.3393 43.5479L14.9613 39.3145Z" fill="#EBEBEB"/>
<path d="M4.0188 0H6.71631V2.6651H9.18395V0H11.8816V8.07058H9.18412V5.36809H6.71647V8.07058H4.01896V0H4.0188Z" fill="#FBFBFB"/>
<path d="M15.4288 2.6764H13.0544V0H20.5028V2.6764H18.1269V8.07058H15.4293V2.6764H15.4292H15.4288Z" fill="#FBFBFB"/>
<path d="M21.6848 0H24.4975L26.2277 2.83579L27.9562 0H30.7701V8.07058H28.0835V4.07036L26.2277 6.93989H26.1812L24.3242 4.07036V8.07058H21.6848V0Z" fill="#FBFBFB"/>
<path d="M32.1125 0H34.8108V5.40299H38.6043V8.07058H32.1123V0H32.1125Z" fill="#FBFBFB"/>
<path d="M21.256 36.6601H27.7924L27.1761 43.5443L21.2559 45.1422V50.6645L32.1378 47.6488L32.2176 46.7519L33.4651 32.7774L33.5946 31.3521H21.256V36.6601Z" fill="white"/>
<path d="M21.2559 25.9036V25.9166H34.0774L34.1838 24.7236L34.4258 22.0326L34.5526 20.6085H21.2559V25.9038V25.9036Z" fill="white"/>
</g>
<defs>
<clipPath id="clip0">
<rect width="42.5485" height="60" fill="white"/>
</clipPath>
</defs>
</svg>
