<svg width="43" height="60" viewBox="0 0 43 60" fill="none" xmlns="http://www.w3.org/2000/svg">
<g clip-path="url(#clip0)">
<path d="M21.2483 59.8484L3.93276 55.0414L0.0739746 11.7616H42.4745L38.6118 55.0347L21.2483 59.8484Z" fill="#264DE4"/>
<path d="M35.3047 52.2791L38.6055 15.3002H21.2742V56.1688L35.3047 52.2791Z" fill="#2965F1"/>
<path d="M8.92017 31.3521L9.39584 36.6601H21.2744V31.3521H8.92017Z" fill="#EBEBEB"/>
<path d="M7.96411 20.6085L8.4466 25.9166H21.2743V20.6085H7.96411Z" fill="#EBEBEB"/>
<path d="M21.2741 45.1379L21.2509 45.1441L15.3393 43.5479L14.9613 39.3145H9.63281L10.3764 47.649L21.2497 50.6673L21.2741 50.6606V45.1379Z" fill="#EBEBEB"/>
<path d="M10.0527 0H16.4815V2.68853H12.7413V5.37706H16.4819V8.06543H10.0527V0Z" fill="#FBFBFB"/>
<path d="M17.7675 0H24.1965V2.33784H20.456V2.80537H24.1965V8.18244H17.7677V5.72743H21.5081V5.25989H17.7673V0H17.7675Z" fill="#FBFBFB"/>
<path d="M25.4824 0H31.9114V2.33784H28.171V2.80537H31.9114V8.18244H25.4824V5.72743H29.2229V5.25989H25.4826V0H25.4824Z" fill="#FBFBFB"/>
<path d="M33.5946 31.3522L34.5528 20.6085H21.256V25.9166H28.7356L28.2526 31.3522H21.256V36.6603H27.7924L27.1761 43.5445L21.2559 45.1424V50.6647L32.1378 47.6489L32.2176 46.7521L33.4651 32.7776L33.5946 31.3522Z" fill="white"/>
</g>
<defs>
<clipPath id="clip0">
<rect width="42.5485" height="60" fill="white"/>
</clipPath>
</defs>
</svg>
