<svg width="60" height="60" viewBox="0 0 60 60" fill="none" xmlns="http://www.w3.org/2000/svg">
<path d="M0 0H60V60H0V0Z" fill="#F7DF1E"/>
<path d="M15.7761 50.141L20.3675 47.3622C21.2535 48.9328 22.0592 50.2617 23.9921 50.2617C25.8449 50.2617 27.0132 49.537 27.0132 46.7179V27.5465H32.6516V46.7976C32.6516 52.6375 29.2283 55.2958 24.2338 55.2958C19.7232 55.2958 17.105 52.9598 15.7759 50.1405" fill="#202833"/>
<path d="M35.7142 49.5369L40.3052 46.8788C41.5138 48.8525 43.0846 50.3023 45.8634 50.3023C48.1998 50.3023 49.6895 49.1342 49.6895 47.5231C49.6895 45.59 48.1591 44.9051 45.5814 43.7778L44.1721 43.1731C40.1041 41.4418 37.4057 39.2668 37.4057 34.6754C37.4057 30.4463 40.6277 27.2241 45.6623 27.2241C49.2468 27.2241 51.8244 28.4729 53.677 31.7351L49.2866 34.5547C48.3198 32.8229 47.2731 32.1383 45.662 32.1383C44.0106 32.1383 42.9634 33.1854 42.9634 34.5547C42.9634 36.2462 44.0106 36.9312 46.427 37.9784L47.8366 38.5824C52.6295 40.6367 55.3279 42.7308 55.3279 47.4427C55.3279 52.5179 51.3407 55.2966 45.9841 55.2966C40.7484 55.2966 37.3652 52.7996 35.714 49.5371" fill="#202833"/>
</svg>
