<svg width="29" height="46" viewBox="0 0 29 46" fill="none" xmlns="http://www.w3.org/2000/svg">
<path fill-rule="evenodd" clip-rule="evenodd" d="M23 2.875H5.75C4.9875 2.875 4.25624 3.1779 3.71707 3.71707C3.1779 4.25624 2.875 4.9875 2.875 5.75V40.25C2.875 41.0125 3.1779 41.7438 3.71707 42.2829C4.25624 42.8221 4.9875 43.125 5.75 43.125H23C23.7625 43.125 24.4938 42.8221 25.0329 42.2829C25.5721 41.7438 25.875 41.0125 25.875 40.25V5.75C25.875 4.9875 25.5721 4.25624 25.0329 3.71707C24.4938 3.1779 23.7625 2.875 23 2.875ZM5.75 0C4.22501 0 2.76247 0.605802 1.68414 1.68414C0.605802 2.76247 0 4.22501 0 5.75V40.25C0 41.775 0.605802 43.2375 1.68414 44.3159C2.76247 45.3942 4.22501 46 5.75 46H23C24.525 46 25.9875 45.3942 27.0659 44.3159C28.1442 43.2375 28.75 41.775 28.75 40.25V5.75C28.75 4.22501 28.1442 2.76247 27.0659 1.68414C25.9875 0.605802 24.525 0 23 0L5.75 0Z" fill="#66FCF1"/>
<path fill-rule="evenodd" clip-rule="evenodd" d="M14.375 40.25C15.1375 40.25 15.8688 39.9471 16.408 39.4079C16.9471 38.8688 17.25 38.1375 17.25 37.375C17.25 36.6125 16.9471 35.8812 16.408 35.3421C15.8688 34.8029 15.1375 34.5 14.375 34.5C13.6125 34.5 12.8813 34.8029 12.3421 35.3421C11.8029 35.8812 11.5 36.6125 11.5 37.375C11.5 38.1375 11.8029 38.8688 12.3421 39.4079C12.8813 39.9471 13.6125 40.25 14.375 40.25Z" fill="#66FCF1"/>
</svg>
